Coordinates
version=1
nRows=9
nColumns=36
inDegrees=yes

Units are S.I. units (second, meters, Newtons, ...)
If the header above contains a line with 'inDegrees', this indicates whether rotational values are in degrees (yes) or radians (no).

endheader
time	pelvis_tilt	pelvis_list	pelvis_rotation	pelvis_tx	pelvis_ty	pelvis_tz	hip_flexion_r	hip_adduction_r	hip_rotation_r	knee_angle_r	knee_angle_r_beta	ankle_angle_r	subtalar_angle_r	mtp_angle_r	hip_flexion_l	hip_adduction_l	hip_rotation_l	knee_angle_l	knee_angle_l_beta	ankle_angle_l	subtalar_angle_l	mtp_angle_l	lumbar_extension	lumbar_bending	lumbar_rotation	arm_flex_r	arm_add_r	arm_rot_r	elbow_flex_r	pro_sup_r	arm_flex_l	arm_add_l	arm_rot_l	elbow_flex_l	pro_sup_l
      0.00000000	     -1.97316087	     -0.17881107	     -3.56690404	     -0.04832098	      1.24794226	     -0.04152849	      0.18262373	     -0.03584343	     10.28891422	      0.24678829	      0.00430727	      5.42095049	    -13.85007584	     -6.58461181	      0.52576280	     -1.67969988	      2.55432556	      8.14697975	      0.14219162	      9.83286759	     -7.89948370	     -6.58461181	     -1.05670704	      1.24578567	      1.94849194	      7.68347253	     -9.82621659	      7.42068423	     21.59336161	     91.10972282	      3.35131718	     -7.90295604	     -0.88136578	     17.80812992	     94.84002952
      0.01666670	     -2.02909937	      0.19086172	     -3.55978533	     -0.05010567	      1.24309758	     -0.04173687	      0.15688127	     -0.83251251	     11.23454800	      0.28960895	      0.00505463	      7.55661734	    -11.73029961	     -7.05716134	      0.23543930	     -1.39828308	      2.59599316	      7.38183499	      0.12883733	      9.66362661	     -6.85497927	     -7.05716134	      0.18241794	      1.26627841	      2.28876617	      8.37178485	     -9.67065322	      8.27282675	     19.76116234	     95.52701687	      3.66455170	     -7.72803630	     -0.54987489	     16.99787957	     99.47710302
      0.03333330	     -0.65191219	     -0.04260149	     -3.53381823	     -0.05370401	      1.24773758	     -0.04219004	     -1.24984737	     -0.77594779	     10.84706501	      0.30136805	      0.00525986	      7.61710950	    -10.43610357	     -7.29212279	     -1.51575049	     -1.78737256	      1.70755823	      6.57239023	      0.11470985	      8.61364737	     -6.58397061	     -7.29212279	     -1.56656816	      1.47755551	      2.36247084	      9.16026900	    -10.13836536	     11.84673227	     19.14346414	     92.59443151	      5.19405182	     -7.95334497	      3.96811013	     16.05939072	     96.75421683
      0.05000000	      0.67839483	     -0.11768149	     -3.23706993	     -0.05640167	      1.24883009	     -0.04251438	     -2.49294232	     -0.85520393	     10.31948350	      0.33277626	      0.00580804	      7.64458180	     -9.85042349	     -7.38367384	     -3.32231011	     -1.92583339	      0.61492038	      6.18067157	      0.10787307	      6.62599794	     -7.12072242	     -7.38367384	     -3.28266009	      1.51242426	      2.05312766	      9.77942568	    -10.23216903	     13.33801256	     18.84165023	     91.93225872	      6.56693127	     -8.03647229	      6.51843965	     15.66298807	     96.74327815
      0.06666670	      1.71234087	      0.05641328	     -3.61509803	     -0.05887488	      1.25006026	     -0.04248791	     -3.46156431	     -1.15405467	     10.37596513	      0.34082058	      0.00594844	      7.67314665	     -9.38612867	     -7.42152861	     -4.12487208	     -1.72517977	     -0.17024912	      6.52524956	      0.11388709	      6.51658979	     -7.59553171	     -7.42152861	     -4.64885363	      1.21206941	      2.44719170	     10.06209034	    -10.19862181	     12.50683658	     18.35250457	     93.94918932	      7.58170194	     -7.87209907	      5.72318579	     15.82528188	     99.71166052
      0.08333330	      2.26955149	      0.07447801	     -3.73677105	     -0.06020700	      1.24731875	     -0.04213020	     -4.00346869	     -1.20258776	     10.49279759	      0.37683315	      0.00657698	      7.51402017	     -9.37343936	     -7.42282652	     -4.58537072	     -1.63821110	     -0.02615318	      6.63387278	      0.11578292	      6.80776379	     -7.91931321	     -7.42282652	     -5.48132367	      1.18447614	      2.61396236	     10.12637436	    -10.23871113	     12.56846953	     18.12554351	     94.04234794	      8.00314306	     -7.82203651	      5.80172104	     16.21733273	     99.83044608
      0.10000000	      2.33498617	      0.12496062	     -3.82455413	     -0.06123009	      1.24764880	     -0.04200296	     -4.17496391	     -1.29095126	     10.47793376	      0.39913872	      0.00696628	      7.30328743	     -9.50458830	     -7.44297343	     -4.75062887	     -1.55233067	      0.13351851	      6.55903908	      0.11447683	      6.84520095	     -8.42847358	     -7.44297343	     -5.61654529	      1.14871775	      2.43258770	      9.92150912	    -10.28179855	     13.81705157	     17.20198924	     91.10916048	      8.07599926	     -8.05496907	      7.42780745	     16.72383628	     96.52800147
      0.11666670	      2.47478707	      0.17795692	     -3.87519732	     -0.06140189	      1.24778524	     -0.04185549	     -4.43951900	     -1.34601572	     10.34758648	      0.41209755	      0.00719246	      7.12042992	     -9.52162149	     -7.44957803	     -4.96555523	     -1.47235958	      0.23675586	      6.45734022	      0.11270185	      7.06224269	     -8.65488642	     -7.44957803	     -5.88097702	      1.06403433	      2.28634063	      9.47406173	    -10.37887354	     14.38890302	     16.87432195	     93.50182682	      8.06600590	     -8.40459750	      8.70226848	     17.49416095	     99.56129712
      0.13333330	      2.44520251	      0.18385407	     -3.82310677	     -0.06168389	      1.25120156	     -0.04190992	     -4.52441282	     -1.33439327	     10.34226912	      0.40613143	      0.00708833	      6.89185579	     -9.88283029	     -7.45669775	     -5.24782039	     -1.46838448	      0.21353880	      6.12862278	      0.10696465	      6.93337787	     -8.86640717	     -7.45669775	     -5.91274466	      1.06241262	      2.03147929	      9.14267102	    -10.33920688	     14.68096156	     16.21181530	     92.25455749	      7.91443375	     -8.64790379	      9.58449121	     18.05961443	     98.15840315
